<svg width="172" height="38" viewBox="0 0 172 38" fill="none" xmlns="http://www.w3.org/2000/svg">
<g filter="url(#filter0_di_393_167)">
<path d="M18.32 28.144C15.728 28.144 13.424 27.604 11.408 26.524C9.392 25.444 7.82 23.92 6.692 21.952C5.564 19.96 5 17.656 5 15.04C5 12.424 5.564 10.12 6.692 8.128C7.82 6.136 9.392 4.6 11.408 3.52C13.424 2.44 15.728 1.9 18.32 1.9C21.8 1.9 24.692 2.764 26.996 4.492V8.02C24.908 6.196 22.124 5.284 18.644 5.284C16.748 5.284 15.044 5.68 13.532 6.472C12.02 7.264 10.832 8.404 9.968 9.892C9.128 11.356 8.708 13.072 8.708 15.04C8.708 17.008 9.128 18.736 9.968 20.224C10.808 21.712 11.972 22.852 13.46 23.644C14.948 24.436 16.628 24.832 18.5 24.832C20.684 24.832 22.472 24.388 23.864 23.5V16.912H19.076V13.924H27.536V25.444C26.408 26.38 25.076 27.064 23.54 27.496C22.028 27.928 20.288 28.144 18.32 28.144ZM40.5975 28.144C38.6535 28.144 36.9375 27.784 35.4495 27.064C33.9855 26.32 32.8335 25.264 31.9935 23.896C31.1775 22.504 30.7695 20.872 30.7695 19C30.7695 17.152 31.1775 15.532 31.9935 14.14C32.8095 12.748 33.9615 11.68 35.4495 10.936C36.9375 10.168 38.6535 9.784 40.5975 9.784C42.5415 9.784 44.2575 10.168 45.7455 10.936C47.2335 11.68 48.3855 12.748 49.2015 14.14C50.0415 15.532 50.4615 17.152 50.4615 19C50.4615 20.872 50.0415 22.504 49.2015 23.896C48.3855 25.264 47.2335 26.32 45.7455 27.064C44.2575 27.784 42.5415 28.144 40.5975 28.144ZM40.5975 25.264C42.4695 25.264 43.9575 24.688 45.0615 23.536C46.1655 22.384 46.7175 20.872 46.7175 19C46.7175 17.056 46.1655 15.52 45.0615 14.392C43.9575 13.264 42.4695 12.7 40.5975 12.7C38.7255 12.7 37.2375 13.264 36.1335 14.392C35.0295 15.52 34.4775 17.056 34.4775 19C34.4775 20.872 35.0295 22.384 36.1335 23.536C37.2375 24.688 38.7255 25.264 40.5975 25.264ZM62.6053 28.144C60.6613 28.144 58.9453 27.784 57.4573 27.064C55.9933 26.32 54.8413 25.264 54.0013 23.896C53.1853 22.504 52.7773 20.872 52.7773 19C52.7773 17.152 53.1853 15.532 54.0013 14.14C54.8173 12.748 55.9693 11.68 57.4573 10.936C58.9453 10.168 60.6613 9.784 62.6053 9.784C64.5493 9.784 66.2653 10.168 67.7533 10.936C69.2413 11.68 70.3933 12.748 71.2093 14.14C72.0493 15.532 72.4693 17.152 72.4693 19C72.4693 20.872 72.0493 22.504 71.2093 23.896C70.3933 25.264 69.2413 26.32 67.7533 27.064C66.2653 27.784 64.5493 28.144 62.6053 28.144ZM62.6053 25.264C64.4773 25.264 65.9653 24.688 67.0693 23.536C68.1733 22.384 68.7253 20.872 68.7253 19C68.7253 17.056 68.1733 15.52 67.0693 14.392C65.9653 13.264 64.4773 12.7 62.6053 12.7C60.7333 12.7 59.2453 13.264 58.1413 14.392C57.0373 15.52 56.4853 17.056 56.4853 19C56.4853 20.872 57.0373 22.384 58.1413 23.536C59.2453 24.688 60.7333 25.264 62.6053 25.264ZM84.2439 28.144C82.5159 28.144 80.9559 27.772 79.5639 27.028C78.1959 26.26 77.1159 25.192 76.3239 23.824C75.5559 22.432 75.1719 20.824 75.1719 19C75.1719 17.2 75.5559 15.604 76.3239 14.212C77.1159 12.82 78.1959 11.74 79.5639 10.972C80.9559 10.18 82.5159 9.784 84.2439 9.784C87.3639 9.784 89.7279 10.732 91.3359 12.628V1H94.9719V27.604H91.4439V25.084C90.4839 26.14 89.4279 26.92 88.2759 27.424C87.1479 27.904 85.8039 28.144 84.2439 28.144ZM85.0719 25.264C86.5599 25.264 87.8559 24.88 88.9599 24.112C90.0879 23.32 90.8799 22.264 91.3359 20.944V17.056C90.9279 15.736 90.1479 14.68 88.9959 13.888C87.8679 13.096 86.5599 12.7 85.0719 12.7C83.8959 12.7 82.8279 12.964 81.8679 13.492C80.9319 14.02 80.1879 14.764 79.6359 15.724C79.1079 16.684 78.8439 17.776 78.8439 19C78.8439 20.224 79.1079 21.316 79.6359 22.276C80.1879 23.236 80.9319 23.98 81.8679 24.508C82.8279 25.012 83.8959 25.264 85.0719 25.264Z" fill="#81ADC8"/>
<path d="M99.6575 2.44H109.342C112.054 2.44 114.19 3.124 115.75 4.492C117.334 5.836 118.126 7.756 118.126 10.252C118.126 12.796 117.346 14.728 115.786 16.048C114.226 17.344 112.078 17.992 109.342 17.992H103.33V27.604H99.6575V2.44ZM108.946 14.932C110.626 14.932 111.958 14.584 112.942 13.888C113.926 13.192 114.418 11.98 114.418 10.252C114.418 8.524 113.926 7.312 112.942 6.616C111.958 5.896 110.626 5.536 108.946 5.536H103.33V14.932H108.946ZM128.488 28.144C126.544 28.144 124.828 27.784 123.34 27.064C121.876 26.32 120.724 25.264 119.884 23.896C119.068 22.504 118.66 20.872 118.66 19C118.66 17.152 119.068 15.532 119.884 14.14C120.7 12.748 121.852 11.68 123.34 10.936C124.828 10.168 126.544 9.784 128.488 9.784C130.432 9.784 132.148 10.168 133.636 10.936C135.124 11.68 136.276 12.748 137.092 14.14C137.932 15.532 138.352 17.152 138.352 19C138.352 20.872 137.932 22.504 137.092 23.896C136.276 25.264 135.124 26.32 133.636 27.064C132.148 27.784 130.432 28.144 128.488 28.144ZM128.488 25.264C130.36 25.264 131.848 24.688 132.952 23.536C134.056 22.384 134.608 20.872 134.608 19C134.608 17.056 134.056 15.52 132.952 14.392C131.848 13.264 130.36 12.7 128.488 12.7C126.616 12.7 125.128 13.264 124.024 14.392C122.92 15.52 122.368 17.056 122.368 19C122.368 20.872 122.92 22.384 124.024 23.536C125.128 24.688 126.616 25.264 128.488 25.264ZM142.302 10.324H145.83V13.42C146.55 12.364 147.558 11.584 148.854 11.08C150.174 10.576 151.698 10.324 153.426 10.324V13.168C151.578 13.168 149.994 13.468 148.674 14.068C147.354 14.668 146.442 15.616 145.938 16.912V27.604H142.302V10.324ZM163.341 28.144C161.589 28.144 160.233 27.64 159.273 26.632C158.337 25.624 157.869 24.196 157.869 22.348V13.132H155.241V10.324H157.869V5.14H161.541V10.324H165.789V13.132H161.541V22.096C161.541 23.248 161.757 24.064 162.189 24.544C162.645 25.024 163.461 25.264 164.637 25.264C165.333 25.264 166.029 25.108 166.725 24.796V27.676C165.813 27.988 164.685 28.144 163.341 28.144Z" fill="#F8F2DC"/>
<path d="M6.692 21.952L5.82182 22.4448L5.82441 22.4493L6.692 21.952ZM26.996 4.492H27.996V3.992L27.596 3.692L26.996 4.492ZM26.996 8.02L26.3381 8.77311L27.996 10.2214V8.02H26.996ZM9.968 9.892L9.1032 9.38986L9.10063 9.39433L9.968 9.892ZM23.864 23.5L24.4018 24.3431L24.864 24.0482V23.5H23.864ZM23.864 16.912H24.864V15.912H23.864V16.912ZM19.076 16.912H18.076V17.912H19.076V16.912ZM19.076 13.924V12.924H18.076V13.924H19.076ZM27.536 13.924H28.536V12.924H27.536V13.924ZM27.536 25.444L28.1746 26.2136L28.536 25.9137V25.444H27.536ZM23.54 27.496L23.2693 26.5333L23.2653 26.5345L23.54 27.496ZM18.32 27.144C15.8705 27.144 13.7326 26.6348 11.8802 25.6425L10.9358 27.4055C13.1154 28.5732 15.5855 29.144 18.32 29.144V27.144ZM11.8802 25.6425C10.028 24.6502 8.59359 23.2587 7.55959 21.4547L5.82441 22.4493C7.04641 24.5813 8.75604 26.2378 10.9358 27.4055L11.8802 25.6425ZM7.56217 21.4593C6.5308 19.6379 6 17.5083 6 15.04H4C4 17.8037 4.59719 20.2822 5.82182 22.4448L7.56217 21.4593ZM6 15.04C6 12.5717 6.5308 10.4421 7.56217 8.62075L5.82183 7.63525C4.5972 9.79789 4 12.2763 4 15.04H6ZM7.56217 8.62075C8.59705 6.79319 10.0311 5.39206 11.8802 4.40148L10.9358 2.63852C8.75287 3.80794 7.04295 5.47881 5.82183 7.63525L7.56217 8.62075ZM11.8802 4.40148C13.7326 3.40915 15.8705 2.9 18.32 2.9V0.9C15.5855 0.9 13.1154 1.47085 10.9358 2.63852L11.8802 4.40148ZM18.32 2.9C21.6299 2.9 24.2988 3.71908 26.396 5.292L27.596 3.692C25.0852 1.80892 21.9701 0.9 18.32 0.9V2.9ZM25.996 4.492V8.02H27.996V4.492H25.996ZM27.6539 7.26689C25.3408 5.24621 22.3021 4.284 18.644 4.284V6.284C21.9459 6.284 24.4752 7.14579 26.3381 8.77311L27.6539 7.26689ZM18.644 4.284C16.6046 4.284 14.7385 4.71116 13.068 5.58617L13.996 7.35783C15.3495 6.64884 16.8914 6.284 18.644 6.284V4.284ZM13.068 5.58617C11.3875 6.46645 10.0611 7.74012 9.1032 9.38986L10.8328 10.3941C11.6029 9.06788 12.6525 8.06155 13.996 7.35783L13.068 5.58617ZM9.10063 9.39433C8.16024 11.0333 7.708 12.9266 7.708 15.04H9.708C9.708 13.2174 10.0958 11.6787 10.8354 10.3897L9.10063 9.39433ZM7.708 15.04C7.708 17.1538 8.16038 19.0561 9.09718 20.7156L10.8388 19.7324C10.0956 18.4159 9.708 16.8622 9.708 15.04H7.708ZM9.09718 20.7156C10.0295 22.3671 11.3315 23.6439 12.9902 24.5267L13.9298 22.7613C12.6125 22.0601 11.5865 21.0569 10.8388 19.7324L9.09718 20.7156ZM12.9902 24.5267C14.6382 25.404 16.4826 25.832 18.5 25.832V23.832C16.7734 23.832 15.2578 23.468 13.9298 22.7613L12.9902 24.5267ZM18.5 25.832C20.8144 25.832 22.805 25.3617 24.4018 24.3431L23.3262 22.6569C22.139 23.4143 20.5536 23.832 18.5 23.832V25.832ZM24.864 23.5V16.912H22.864V23.5H24.864ZM23.864 15.912H19.076V17.912H23.864V15.912ZM20.076 16.912V13.924H18.076V16.912H20.076ZM19.076 14.924H27.536V12.924H19.076V14.924ZM26.536 13.924V25.444H28.536V13.924H26.536ZM26.8974 24.6744C25.8864 25.5134 24.6825 26.1359 23.2693 26.5333L23.8107 28.4587C25.4695 27.9921 26.9296 27.2466 28.1746 26.2136L26.8974 24.6744ZM23.2653 26.5345C21.8617 26.9355 20.2173 27.144 18.32 27.144V29.144C20.3587 29.144 22.1943 28.9205 23.8147 28.4575L23.2653 26.5345ZM35.4495 27.064L34.9965 27.9555L35.0052 27.9599L35.014 27.9642L35.4495 27.064ZM31.9935 23.896L31.1308 24.4017L31.136 24.4105L31.1414 24.4193L31.9935 23.896ZM35.4495 10.936L35.8968 11.8305L35.9082 11.8246L35.4495 10.936ZM45.7455 10.936L45.2869 11.8247L45.2983 11.8304L45.7455 10.936ZM49.2015 14.14L48.3388 14.6458L48.3453 14.6567L49.2015 14.14ZM49.2015 23.896L48.3453 23.3793L48.3427 23.3837L49.2015 23.896ZM45.7455 27.064L46.1811 27.9642L46.1927 27.9584L45.7455 27.064ZM40.5975 27.144C38.778 27.144 37.2154 26.8075 35.8851 26.1638L35.014 27.9642C36.6597 28.7605 38.5291 29.144 40.5975 29.144V27.144ZM35.9026 26.1725C34.5991 25.5101 33.5869 24.5798 32.8457 23.3727L31.1414 24.4193C32.0802 25.9482 33.372 27.1299 34.9965 27.9555L35.9026 26.1725ZM32.8562 23.3903C32.1437 22.1748 31.7695 20.7231 31.7695 19H29.7695C29.7695 21.0209 30.2114 22.8332 31.1308 24.4017L32.8562 23.3903ZM31.7695 19C31.7695 17.3035 32.1425 15.8632 32.8562 14.6457L31.1308 13.6343C30.2125 15.2008 29.7695 17.0005 29.7695 19H31.7695ZM32.8562 14.6457C33.5711 13.4262 34.5764 12.4908 35.8968 11.8305L35.0023 10.0416C33.3468 10.8693 32.0479 12.0698 31.1308 13.6343L32.8562 14.6457ZM35.9082 11.8246C37.2331 11.1408 38.7874 10.784 40.5975 10.784V8.784C38.5197 8.784 36.6419 9.19523 34.9909 10.0474L35.9082 11.8246ZM40.5975 10.784C42.4077 10.784 43.9619 11.1409 45.2869 11.8247L46.2042 10.0474C44.5531 9.19523 42.6754 8.784 40.5975 8.784V10.784ZM45.2983 11.8304C46.6188 12.4907 47.6239 13.4263 48.3388 14.6458L50.0642 13.6343C49.1471 12.0698 47.8483 10.8693 46.1927 10.0416L45.2983 11.8304ZM48.3453 14.6567C49.0789 15.8723 49.4615 17.3087 49.4615 19H51.4615C51.4615 16.9953 51.0041 15.1917 50.0577 13.6233L48.3453 14.6567ZM49.4615 19C49.4615 20.718 49.0777 22.1656 48.3453 23.3793L50.0577 24.4127C51.0053 22.8424 51.4615 21.026 51.4615 19H49.4615ZM48.3427 23.3837C47.6291 24.5801 46.6234 25.507 45.2983 26.1696L46.1927 27.9584C47.8437 27.133 49.142 25.9479 50.0604 24.4083L48.3427 23.3837ZM45.31 26.1638C43.9797 26.8075 42.4171 27.144 40.5975 27.144V29.144C42.666 29.144 44.5354 28.7605 46.1811 27.9642L45.31 26.1638ZM40.5975 26.264C42.6909 26.264 44.4582 25.6109 45.7835 24.2279L44.3395 22.8441C43.4569 23.7651 42.2482 24.264 40.5975 24.264V26.264ZM45.7835 24.2279C47.0965 22.8578 47.7175 21.082 47.7175 19H45.7175C45.7175 20.662 45.2346 21.9101 44.3395 22.8441L45.7835 24.2279ZM47.7175 19C47.7175 16.8586 47.1035 15.0487 45.7762 13.6925L44.3469 15.0915C45.2276 15.9913 45.7175 17.2534 45.7175 19H47.7175ZM45.7762 13.6925C44.4494 12.3369 42.6845 11.7 40.5975 11.7V13.7C42.2545 13.7 43.4656 14.1911 44.3469 15.0915L45.7762 13.6925ZM40.5975 11.7C38.5105 11.7 36.7456 12.3369 35.4189 13.6925L36.8482 15.0915C37.7294 14.1911 38.9405 13.7 40.5975 13.7V11.7ZM35.4189 13.6925C34.0916 15.0487 33.4775 16.8586 33.4775 19H35.4775C35.4775 17.2534 35.9675 15.9913 36.8482 15.0915L35.4189 13.6925ZM33.4775 19C33.4775 21.082 34.0986 22.8578 35.4115 24.2279L36.8555 22.8441C35.9605 21.9101 35.4775 20.662 35.4775 19H33.4775ZM35.4115 24.2279C36.7369 25.6109 38.5042 26.264 40.5975 26.264V24.264C38.9469 24.264 37.7382 23.7651 36.8555 22.8441L35.4115 24.2279ZM57.4573 27.064L57.0043 27.9555L57.013 27.9599L57.0218 27.9642L57.4573 27.064ZM54.0013 23.896L53.1386 24.4017L53.1438 24.4105L53.1492 24.4193L54.0013 23.896ZM57.4573 10.936L57.9046 11.8305L57.916 11.8246L57.4573 10.936ZM67.7533 10.936L67.2947 11.8247L67.3061 11.8304L67.7533 10.936ZM71.2093 14.14L70.3466 14.6458L70.3532 14.6567L71.2093 14.14ZM71.2093 23.896L70.3531 23.3793L70.3505 23.3837L71.2093 23.896ZM67.7533 27.064L68.1889 27.9642L68.2006 27.9584L67.7533 27.064ZM62.6053 27.144C60.7858 27.144 59.2232 26.8075 57.8929 26.1638L57.0218 27.9642C58.6675 28.7605 60.5369 29.144 62.6053 29.144V27.144ZM57.9104 26.1725C56.6069 25.5101 55.5947 24.5798 54.8535 23.3727L53.1492 24.4193C54.088 25.9482 55.3798 27.1299 57.0043 27.9555L57.9104 26.1725ZM54.864 23.3903C54.1515 22.1748 53.7773 20.7231 53.7773 19H51.7773C51.7773 21.0209 52.2192 22.8332 53.1386 24.4017L54.864 23.3903ZM53.7773 19C53.7773 17.3035 54.1504 15.8632 54.864 14.6457L53.1386 13.6343C52.2203 15.2008 51.7773 17.0005 51.7773 19H53.7773ZM54.864 14.6457C55.5789 13.4262 56.5841 12.4908 57.9046 11.8305L57.0101 10.0416C55.3546 10.8693 54.0557 12.0698 53.1386 13.6343L54.864 14.6457ZM57.916 11.8246C59.241 11.1408 60.7952 10.784 62.6053 10.784V8.784C60.5275 8.784 58.6497 9.19523 56.9987 10.0474L57.916 11.8246ZM62.6053 10.784C64.4155 10.784 65.9697 11.1409 67.2947 11.8247L68.212 10.0474C66.561 9.19523 64.6832 8.784 62.6053 8.784V10.784ZM67.3061 11.8304C68.6266 12.4907 69.6317 13.4263 70.3466 14.6458L72.072 13.6343C71.1549 12.0698 69.8561 10.8693 68.2006 10.0416L67.3061 11.8304ZM70.3532 14.6567C71.0867 15.8723 71.4693 17.3087 71.4693 19H73.4693C73.4693 16.9953 73.0119 15.1917 72.0655 13.6233L70.3532 14.6567ZM71.4693 19C71.4693 20.718 71.0855 22.1656 70.3531 23.3793L72.0655 24.4127C73.0131 22.8424 73.4693 21.026 73.4693 19H71.4693ZM70.3505 23.3837C69.6369 24.5801 68.6312 25.507 67.3061 26.1696L68.2006 27.9584C69.8515 27.133 71.1498 25.9479 72.0682 24.4083L70.3505 23.3837ZM67.3178 26.1638C65.9875 26.8075 64.4249 27.144 62.6053 27.144V29.144C64.6738 29.144 66.5432 28.7605 68.1889 27.9642L67.3178 26.1638ZM62.6053 26.264C64.6987 26.264 66.466 25.6109 67.7913 24.2279L66.3474 22.8441C65.4647 23.7651 64.256 24.264 62.6053 24.264V26.264ZM67.7913 24.2279C69.1043 22.8578 69.7253 21.082 69.7253 19H67.7253C67.7253 20.662 67.2424 21.9101 66.3474 22.8441L67.7913 24.2279ZM69.7253 19C69.7253 16.8586 69.1113 15.0487 67.784 13.6925L66.3547 15.0915C67.2354 15.9913 67.7253 17.2534 67.7253 19H69.7253ZM67.784 13.6925C66.4573 12.3369 64.6924 11.7 62.6053 11.7V13.7C64.2623 13.7 65.4734 14.1911 66.3547 15.0915L67.784 13.6925ZM62.6053 11.7C60.5183 11.7 58.7534 12.3369 57.4267 13.6925L58.856 15.0915C59.7373 14.1911 60.9484 13.7 62.6053 13.7V11.7ZM57.4267 13.6925C56.0994 15.0487 55.4853 16.8586 55.4853 19H57.4853C57.4853 17.2534 57.9753 15.9913 58.856 15.0915L57.4267 13.6925ZM55.4853 19C55.4853 21.082 56.1064 22.8578 57.4194 24.2279L58.8633 22.8441C57.9683 21.9101 57.4853 20.662 57.4853 19H55.4853ZM57.4194 24.2279C58.7447 25.6109 60.512 26.264 62.6053 26.264V24.264C60.9547 24.264 59.746 23.7651 58.8633 22.8441L57.4194 24.2279ZM79.5639 27.028L79.0743 27.9L79.0834 27.9051L79.0925 27.9099L79.5639 27.028ZM76.3239 23.824L75.4483 24.3071L75.4533 24.3161L75.4584 24.325L76.3239 23.824ZM76.3239 14.212L75.4546 13.7174L75.4483 13.7289L76.3239 14.212ZM79.5639 10.972L80.0534 11.844L80.0584 11.8412L79.5639 10.972ZM91.3359 12.628L90.5732 13.2748L92.3359 15.3532V12.628H91.3359ZM91.3359 1V0H90.3359V1H91.3359ZM94.9719 1H95.9719V0H94.9719V1ZM94.9719 27.604V28.604H95.9719V27.604H94.9719ZM91.4439 27.604H90.4439V28.604H91.4439V27.604ZM91.4439 25.084H92.4439V22.4974L90.7039 24.4113L91.4439 25.084ZM88.2759 27.424L88.6675 28.3442L88.6767 28.3402L88.2759 27.424ZM88.9599 24.112L89.5309 24.9329L89.5345 24.9304L88.9599 24.112ZM91.3359 20.944L92.2811 21.2705L92.3359 21.1119V20.944H91.3359ZM91.3359 17.056H92.3359V16.905L92.2913 16.7607L91.3359 17.056ZM88.9959 13.888L88.4212 14.7065L88.4293 14.712L88.9959 13.888ZM81.8679 13.492L81.3859 12.6157L81.3766 12.621L81.8679 13.492ZM79.6359 15.724L78.769 15.2255L78.7642 15.2338L78.7597 15.2421L79.6359 15.724ZM79.6359 22.276L78.7597 22.7579L78.7642 22.7662L78.769 22.7745L79.6359 22.276ZM81.8679 24.508L81.3766 25.379L81.3897 25.3864L81.403 25.3934L81.8679 24.508ZM84.2439 27.144C82.6644 27.144 81.2688 26.8054 80.0353 26.1461L79.0925 27.9099C80.643 28.7386 82.3674 29.144 84.2439 29.144V27.144ZM80.0534 26.156C78.8429 25.4764 77.8922 24.5371 77.1893 23.323L75.4584 24.325C76.3395 25.8469 77.5488 27.0436 79.0743 27.9L80.0534 26.156ZM77.1995 23.3409C76.5244 22.1174 76.1719 20.6802 76.1719 19H74.1719C74.1719 20.9678 74.5873 22.7466 75.4483 24.3071L77.1995 23.3409ZM76.1719 19C76.1719 17.3463 76.5234 15.9205 77.1995 14.6951L75.4483 13.7289C74.5884 15.2875 74.1719 17.0537 74.1719 19H76.1719ZM77.193 14.7065C77.8971 13.469 78.8473 12.5211 80.0534 11.844L79.0743 10.1C77.5444 10.9589 76.3345 12.1709 75.4546 13.7174L77.193 14.7065ZM80.0584 11.8412C81.2879 11.1416 82.6752 10.784 84.2439 10.784V8.784C82.3566 8.784 80.6239 9.21836 79.0694 10.1028L80.0584 11.8412ZM84.2439 10.784C87.1513 10.784 89.2021 11.6581 90.5732 13.2748L92.0985 11.9812C90.2536 9.80586 87.5764 8.784 84.2439 8.784V10.784ZM92.3359 12.628V1H90.3359V12.628H92.3359ZM91.3359 2H94.9719V0H91.3359V2ZM93.9719 1V27.604H95.9719V1H93.9719ZM94.9719 26.604H91.4439V28.604H94.9719V26.604ZM92.4439 27.604V25.084H90.4439V27.604H92.4439ZM90.7039 24.4113C89.8258 25.3773 88.8818 26.0674 87.8751 26.5078L88.6767 28.3402C89.9739 27.7726 91.1419 26.9027 92.1838 25.7567L90.7039 24.4113ZM87.8843 26.5038C86.9089 26.9189 85.7046 27.144 84.2439 27.144V29.144C85.9032 29.144 87.3869 28.8891 88.6675 28.3442L87.8843 26.5038ZM85.0719 26.264C86.7414 26.264 88.2416 25.8298 89.5309 24.9329L88.3888 23.2911C87.4701 23.9302 86.3784 24.264 85.0719 24.264V26.264ZM89.5345 24.9304C90.8371 24.0158 91.7573 22.7866 92.2811 21.2705L90.3907 20.6175C90.0024 21.7414 89.3386 22.6242 88.3852 23.2936L89.5345 24.9304ZM92.3359 20.944V17.056H90.3359V20.944H92.3359ZM92.2913 16.7607C91.816 15.223 90.8974 13.9818 89.5624 13.064L88.4293 14.712C89.3983 15.3782 90.0398 16.249 90.3805 17.3513L92.2913 16.7607ZM89.5705 13.0696C88.2606 12.1499 86.7483 11.7 85.0719 11.7V13.7C86.3715 13.7 87.4751 14.0422 88.4212 14.7065L89.5705 13.0696ZM85.0719 11.7C83.7401 11.7 82.5043 12.0006 81.3859 12.6157L82.3498 14.3682C83.1514 13.9273 84.0516 13.7 85.0719 13.7V11.7ZM81.3766 12.621C80.2793 13.24 79.4076 14.1149 78.769 15.2255L80.5028 16.2225C80.9682 15.4131 81.5845 14.8 82.3592 14.363L81.3766 12.621ZM78.7597 15.2421C78.1413 16.3664 77.8439 17.6276 77.8439 19H79.8439C79.8439 17.9244 80.0745 17.0016 80.5121 16.2059L78.7597 15.2421ZM77.8439 19C77.8439 20.3724 78.1413 21.6336 78.7597 22.7579L80.5121 21.7941C80.0745 20.9984 79.8439 20.0756 79.8439 19H77.8439ZM78.769 22.7745C79.4076 23.8851 80.2793 24.76 81.3766 25.379L82.3592 23.637C81.5845 23.2 80.9682 22.5869 80.5028 21.7775L78.769 22.7745ZM81.403 25.3934C82.5183 25.9789 83.748 26.264 85.0719 26.264V24.264C84.0438 24.264 83.1374 24.0451 82.3327 23.6226L81.403 25.3934ZM99.6575 2.44V1.44H98.6575V2.44H99.6575ZM115.749 4.492L115.09 5.24386L115.096 5.24923L115.103 5.25451L115.749 4.492ZM115.786 16.048L116.425 16.8172L116.431 16.8114L115.786 16.048ZM103.33 17.992V16.992H102.33V17.992H103.33ZM103.33 27.604V28.604H104.33V27.604H103.33ZM99.6575 27.604H98.6575V28.604H99.6575V27.604ZM112.942 6.616L112.351 7.42303L112.357 7.42777L112.364 7.43241L112.942 6.616ZM103.33 5.536V4.536H102.33V5.536H103.33ZM103.33 14.932H102.33V15.932H103.33V14.932ZM99.6575 3.44H109.342V1.44H99.6575V3.44ZM109.342 3.44C111.887 3.44 113.763 4.07968 115.09 5.24386L116.409 3.74014C114.616 2.16832 112.22 1.44 109.342 1.44V3.44ZM115.103 5.25451C116.417 6.3701 117.125 7.98462 117.125 10.252H119.125C119.125 7.52738 118.25 5.3019 116.396 3.72949L115.103 5.25451ZM117.125 10.252C117.125 12.5802 116.421 14.2 115.14 15.2846L116.431 16.8114C118.27 15.256 119.125 13.0118 119.125 10.252H117.125ZM115.146 15.2788C113.82 16.3807 111.926 16.992 109.342 16.992V18.992C112.229 18.992 114.631 18.3073 116.425 16.8172L115.146 15.2788ZM109.342 16.992H103.33V18.992H109.342V16.992ZM102.33 17.992V27.604H104.33V17.992H102.33ZM103.33 26.604H99.6575V28.604H103.33V26.604ZM100.658 27.604V2.44H98.6575V27.604H100.658ZM108.945 15.932C110.753 15.932 112.311 15.5586 113.519 14.7044L112.364 13.0716C111.604 13.6094 110.498 13.932 108.945 13.932V15.932ZM113.519 14.7044C114.871 13.7484 115.417 12.1544 115.417 10.252H113.417C113.417 11.8056 112.98 12.6356 112.364 13.0716L113.519 14.7044ZM115.417 10.252C115.417 8.34956 114.871 6.75556 113.519 5.79958L112.364 7.43241C112.98 7.86843 113.417 8.69844 113.417 10.252H115.417ZM113.532 5.80897C112.323 4.92404 110.759 4.536 108.945 4.536V6.536C110.492 6.536 111.592 6.86796 112.351 7.42303L113.532 5.80897ZM108.945 4.536H103.33V6.536H108.945V4.536ZM102.33 5.536V14.932H104.33V5.536H102.33ZM103.33 15.932H108.945V13.932H103.33V15.932ZM123.34 27.064L122.887 27.9555L122.896 27.9599L122.905 27.9642L123.34 27.064ZM119.884 23.896L119.021 24.4017L119.027 24.4105L119.032 24.4193L119.884 23.896ZM123.34 10.936L123.787 11.8305L123.799 11.8246L123.34 10.936ZM133.636 10.936L133.177 11.8247L133.189 11.8304L133.636 10.936ZM137.092 14.14L136.229 14.6458L136.236 14.6567L137.092 14.14ZM137.092 23.896L136.236 23.3793L136.233 23.3837L137.092 23.896ZM133.636 27.064L134.072 27.9642L134.083 27.9584L133.636 27.064ZM128.488 27.144C126.669 27.144 125.106 26.8075 123.776 26.1638L122.905 27.9642C124.55 28.7605 126.42 29.144 128.488 29.144V27.144ZM123.793 26.1725C122.49 25.5101 121.477 24.5798 120.736 23.3727L119.032 24.4193C119.971 25.9482 121.263 27.1299 122.887 27.9555L123.793 26.1725ZM120.747 23.3903C120.034 22.1748 119.66 20.7231 119.66 19H117.66C117.66 21.0209 118.102 22.8332 119.021 24.4017L120.747 23.3903ZM119.66 19C119.66 17.3035 120.033 15.8632 120.747 14.6457L119.021 13.6343C118.103 15.2008 117.66 17.0005 117.66 19H119.66ZM120.747 14.6457C121.462 13.4262 122.467 12.4908 123.787 11.8305L122.893 10.0416C121.237 10.8693 119.939 12.0698 119.021 13.6343L120.747 14.6457ZM123.799 11.8246C125.124 11.1408 126.678 10.784 128.488 10.784V8.784C126.41 8.784 124.533 9.19523 122.882 10.0474L123.799 11.8246ZM128.488 10.784C130.298 10.784 131.853 11.1408 133.178 11.8246L134.095 10.0474C132.444 9.19523 130.566 8.784 128.488 8.784V10.784ZM133.189 11.8304C134.509 12.4907 135.515 13.4263 136.229 14.6458L137.955 13.6343C137.038 12.0698 135.739 10.8693 134.083 10.0416L133.189 11.8304ZM136.236 14.6567C136.97 15.8723 137.352 17.3087 137.352 19H139.352C139.352 16.9953 138.895 15.1917 137.948 13.6233L136.236 14.6567ZM137.352 19C137.352 20.718 136.968 22.1656 136.236 23.3793L137.948 24.4127C138.896 22.8424 139.352 21.026 139.352 19H137.352ZM136.233 23.3837C135.52 24.5801 134.514 25.507 133.189 26.1696L134.083 27.9584C135.734 27.133 137.033 25.9479 137.951 24.4083L136.233 23.3837ZM133.201 26.1638C131.87 26.8075 130.308 27.144 128.488 27.144V29.144C130.557 29.144 132.426 28.7605 134.072 27.9642L133.201 26.1638ZM128.488 26.264C130.582 26.264 132.349 25.6109 133.674 24.2279L132.23 22.8441C131.348 23.7651 130.139 24.264 128.488 24.264V26.264ZM133.674 24.2279C134.987 22.8578 135.608 21.082 135.608 19H133.608C133.608 20.662 133.125 21.9101 132.23 22.8441L133.674 24.2279ZM135.608 19C135.608 16.8586 134.994 15.0487 133.667 13.6925L132.237 15.0915C133.118 15.9913 133.608 17.2534 133.608 19H135.608ZM133.667 13.6925C132.34 12.3369 130.575 11.7 128.488 11.7V13.7C130.145 13.7 131.356 14.1911 132.237 15.0915L133.667 13.6925ZM128.488 11.7C126.401 11.7 124.636 12.3369 123.309 13.6925L124.739 15.0915C125.62 14.1911 126.831 13.7 128.488 13.7V11.7ZM123.309 13.6925C121.982 15.0487 121.368 16.8586 121.368 19H123.368C123.368 17.2534 123.858 15.9913 124.739 15.0915L123.309 13.6925ZM121.368 19C121.368 21.082 121.989 22.8578 123.302 24.2279L124.746 22.8441C123.851 21.9101 123.368 20.662 123.368 19H121.368ZM123.302 24.2279C124.628 25.6109 126.395 26.264 128.488 26.264V24.264C126.838 24.264 125.629 23.7651 124.746 22.8441L123.302 24.2279ZM142.302 10.324V9.324H141.302V10.324H142.302ZM145.83 10.324H146.83V9.324H145.83V10.324ZM145.83 13.42H144.83V16.6618L146.656 13.9833L145.83 13.42ZM148.854 11.08L148.497 10.1458L148.492 10.148L148.854 11.08ZM153.426 10.324H154.426V9.324H153.426V10.324ZM153.426 13.168V14.168H154.426V13.168H153.426ZM145.938 16.912L145.006 16.5496L144.938 16.7244V16.912H145.938ZM145.938 27.604V28.604H146.938V27.604H145.938ZM142.302 27.604H141.302V28.604H142.302V27.604ZM142.302 11.324H145.83V9.324H142.302V11.324ZM144.83 10.324V13.42H146.83V10.324H144.83ZM146.656 13.9833C147.252 13.109 148.091 12.4495 149.216 12.012L148.492 10.148C147.025 10.7185 145.848 11.619 145.004 12.8567L146.656 13.9833ZM149.211 12.0142C150.395 11.5622 151.794 11.324 153.426 11.324V9.324C151.602 9.324 149.953 9.58978 148.497 10.1458L149.211 12.0142ZM152.426 10.324V13.168H154.426V10.324H152.426ZM153.426 12.168C151.473 12.168 149.741 12.4847 148.26 13.1576L149.088 14.9784C150.247 14.4513 151.683 14.168 153.426 14.168V12.168ZM148.26 13.1576C146.714 13.8605 145.609 14.999 145.006 16.5496L146.87 17.2744C147.275 16.233 147.994 15.4755 149.088 14.9784L148.26 13.1576ZM144.938 16.912V27.604H146.938V16.912H144.938ZM145.938 26.604H142.302V28.604H145.938V26.604ZM143.302 27.604V10.324H141.302V27.604H143.302ZM159.273 26.632L158.54 27.3125L158.549 27.3217L159.273 26.632ZM157.869 13.132H158.869V12.132H157.869V13.132ZM155.241 13.132H154.241V14.132H155.241V13.132ZM155.241 10.324V9.324H154.241V10.324H155.241ZM157.869 10.324V11.324H158.869V10.324H157.869ZM157.869 5.14V4.14H156.869V5.14H157.869ZM161.541 5.14H162.541V4.14H161.541V5.14ZM161.541 10.324H160.541V11.324H161.541V10.324ZM165.789 10.324H166.789V9.324H165.789V10.324ZM165.789 13.132V14.132H166.789V13.132H165.789ZM161.541 13.132V12.132H160.541V13.132H161.541ZM162.189 24.544L161.446 25.213L161.455 25.223L161.464 25.2327L162.189 24.544ZM166.725 24.796H167.725V23.2518L166.316 23.8835L166.725 24.796ZM166.725 27.676L167.049 28.6222L167.725 28.3908V27.676H166.725ZM163.341 27.144C161.787 27.144 160.722 26.7036 159.997 25.9423L158.549 27.3217C159.744 28.5764 161.39 29.144 163.341 29.144V27.144ZM160.006 25.9515C159.293 25.1844 158.869 24.0319 158.869 22.348H156.869C156.869 24.3601 157.38 26.0636 158.54 27.3125L160.006 25.9515ZM158.869 22.348V13.132H156.869V22.348H158.869ZM157.869 12.132H155.241V14.132H157.869V12.132ZM156.241 13.132V10.324H154.241V13.132H156.241ZM155.241 11.324H157.869V9.324H155.241V11.324ZM158.869 10.324V5.14H156.869V10.324H158.869ZM157.869 6.14H161.541V4.14H157.869V6.14ZM160.541 5.14V10.324H162.541V5.14H160.541ZM161.541 11.324H165.789V9.324H161.541V11.324ZM164.789 10.324V13.132H166.789V10.324H164.789ZM165.789 12.132H161.541V14.132H165.789V12.132ZM160.541 13.132V22.096H162.541V13.132H160.541ZM160.541 22.096C160.541 23.3201 160.76 24.4513 161.446 25.213L162.932 23.875C162.754 23.6767 162.541 23.1759 162.541 22.096H160.541ZM161.464 25.2327C162.211 26.0194 163.384 26.264 164.637 26.264V24.264C163.538 24.264 163.079 24.0286 162.914 23.8553L161.464 25.2327ZM164.637 26.264C165.487 26.264 166.322 26.0726 167.134 25.7085L166.316 23.8835C165.736 24.1434 165.179 24.264 164.637 24.264V26.264ZM165.725 24.796V27.676H167.725V24.796H165.725ZM166.401 26.7298C165.626 26.9952 164.615 27.144 163.341 27.144V29.144C164.755 29.144 166 28.9808 167.049 28.6222L166.401 26.7298Z" fill="#0B0014"/>
</g>
<defs>
<filter id="filter0_di_393_167" x="0" y="0" width="171.725" height="37.144" filterUnits="userSpaceOnUse" color-interpolation-filters="sRGB">
<feFlood flood-opacity="0" result="BackgroundImageFix"/>
<feColorMatrix in="SourceAlpha" type="matrix" values="0 0 0 0 0 0 0 0 0 0 0 0 0 0 0 0 0 0 127 0" result="hardAlpha"/>
<feOffset dy="4"/>
<feGaussianBlur stdDeviation="2"/>
<feComposite in2="hardAlpha" operator="out"/>
<feColorMatrix type="matrix" values="0 0 0 0 0 0 0 0 0 0 0 0 0 0 0 0 0 0 0.25 0"/>
<feBlend mode="normal" in2="BackgroundImageFix" result="effect1_dropShadow_393_167"/>
<feBlend mode="normal" in="SourceGraphic" in2="effect1_dropShadow_393_167" result="shape"/>
<feColorMatrix in="SourceAlpha" type="matrix" values="0 0 0 0 0 0 0 0 0 0 0 0 0 0 0 0 0 0 127 0" result="hardAlpha"/>
<feOffset dy="4"/>
<feGaussianBlur stdDeviation="2"/>
<feComposite in2="hardAlpha" operator="arithmetic" k2="-1" k3="1"/>
<feColorMatrix type="matrix" values="0 0 0 0 0 0 0 0 0 0 0 0 0 0 0 0 0 0 0.25 0"/>
<feBlend mode="normal" in2="shape" result="effect2_innerShadow_393_167"/>
</filter>
</defs>
</svg>
